<svg fill="#877EFF" width="24px" height="24px" viewBox="-0.06 -0.09 0.72 0.72" xmlns="http://www.w3.org/2000/svg" preserveAspectRatio="xMinYMin" class="jam jam-calendar"><path d="M0.54 0.21V0.15a0.03 0.03 0 0 0 -0.03 -0.03h-0.03v0.03a0.03 0.03 0 0 1 -0.06 0V0.12H0.18v0.03a0.03 0.03 0 1 1 -0.06 0V0.12H0.09a0.03 0.03 0 0 0 -0.03 0.03v0.06h0.48zm0 0.06H0.06v0.18a0.03 0.03 0 0 0 0.03 0.03h0.42a0.03 0.03 0 0 0 0.03 -0.03V0.27zm-0.06 -0.21h0.03a0.09 0.09 0 0 1 0.09 0.09v0.3a0.09 0.09 0 0 1 -0.09 0.09H0.09a0.09 0.09 0 0 1 -0.09 -0.09V0.15a0.09 0.09 0 0 1 0.09 -0.09h0.03V0.03a0.03 0.03 0 1 1 0.06 0v0.03h0.24V0.03a0.03 0.03 0 0 1 0.06 0v0.03z"/></svg>