<svg width="24px" height="24px" viewBox="0 0 0.72 0.72" fill="none" xmlns="http://www.w3.org/2000/svg"><path d="M0.06 0.18a0.06 0.06 0 0 1 0.06 -0.06h0.48a0.06 0.06 0 0 1 0.06 0.06v0.33a0.06 0.06 0 0 1 -0.06 0.06h-0.138l-0.081 0.081a0.03 0.03 0 0 1 -0.042 0L0.258 0.57H0.12a0.06 0.06 0 0 1 -0.06 -0.06V0.18zm0.54 0H0.12v0.33h0.15a0.03 0.03 0 0 1 0.021 0.009L0.36 0.588l0.069 -0.069A0.03 0.03 0 0 1 0.45 0.51h0.15V0.18zM0.18 0.285a0.03 0.03 0 0 1 0.03 -0.03h0.3a0.03 0.03 0 1 1 0 0.06H0.21a0.03 0.03 0 0 1 -0.03 -0.03zm0 0.12a0.03 0.03 0 0 1 0.03 -0.03h0.18a0.03 0.03 0 1 1 0 0.06H0.21a0.03 0.03 0 0 1 -0.03 -0.03z" fill="#877EFF"/></svg>